<svg viewBox="10 10 50 48" fill="currentColor" xmlns="http://www.w3.org/2000/svg">
<path fill-rule="evenodd" clip-rule="evenodd" d="M12 13V56H14.6034V49.4339H46.0877V56H48.5283V49.4339H55.9316V46.8715H48.5283V42.067H55.9316V39.4246H48.5283V33.4991H55.9316V30.9367H48.5283V25.892H55.9316V23.3296H48.5283V13H46.0877V22.3687H14.6034V13H12ZM46.0877 26.2123H14.522V45.4302H46.0877V26.2123Z"/>
<path d="M55.8503 13H58.2928L58.2909 56H55.8503V13Z"/>
<path d="M25.1007 21.0076H17.8632C16.647 21.0076 15.6611 20.0217 15.6611 18.8056C15.6611 17.5894 16.6459 16.6035 17.862 16.6035L22.8156 16.6036C24.2931 16.6036 26.2373 17.9532 26.2373 19.8711C26.2373 20.4988 25.7284 21.0076 25.1007 21.0076Z"/>
<path d="M25.1007 44.0682H17.8632C16.647 44.0682 15.6611 43.0823 15.6611 41.8661C15.6611 40.65 16.6459 39.6641 17.862 39.6641L22.8156 39.6641C24.2931 39.6641 26.2373 41.0138 26.2373 42.9316C26.2373 43.5593 25.7284 44.0682 25.1007 44.0682Z"/>
</svg>

