<svg width="382" height="437" viewBox="0 0 382 437" fill="none" xmlns="http://www.w3.org/2000/svg">
<mask id="mask0_1587_341" style="mask-type:luminance" maskUnits="userSpaceOnUse" x="0" y="0" width="382" height="437">
<path d="M381.524 0H0V436.267H381.524V0Z" fill="white"/>
</mask>
<g mask="url(#mask0_1587_341)">
<path d="M337.754 198.182C323.757 88.2389 246.457 7.50315 165.098 17.8538C152.337 19.4773 140.234 23.2452 128.951 28.8692C89.479 13.4859 54.8145 13.3017 32.8513 31.9187C-1.15539 60.7445 4.34538 126.967 40.9497 199.502C40.8647 211.334 41.5722 223.422 43.1308 235.665C57.1286 345.607 134.43 426.344 215.787 415.994C227.645 414.484 238.935 411.124 249.527 406.144C290.302 422.761 326.235 423.462 348.781 404.351C383.018 375.329 377.209 308.396 339.927 235.282C340.057 223.152 339.354 210.748 337.754 198.182Z" fill="#2849CB"/>
</g>
</svg>
