<svg preserveAspectRatio="none" overflow="visible" style="display: block;" width="67.092" height="68.418" viewBox="0 0 67.092 68.418" fill="none" xmlns="http://www.w3.org/2000/svg">
<g id="Group 48095565">
<path id="Ellipse 61" d="M33.6392 25.8344C38.6093 25.8344 42.6255 29.7842 42.6255 34.641C42.6254 39.4978 38.6093 43.4477 33.6392 43.4477C28.6692 43.4475 24.6539 39.4977 24.6538 34.641C24.6538 29.7843 28.6692 25.8345 33.6392 25.8344Z" fill="#74D4F0" stroke="#74D4F0" stroke-width="0.792"/>
<line id="Line 22" y1="-2.772" x2="26.8268" y2="-2.772" transform="matrix(0.0635874 0.997976 -0.998126 0.061192 27.6693 0.339248)" stroke="#74D4F0" stroke-width="5.544"/>
<line id="Line 23" x1="37.7221" y1="28.0292" x2="52.7093" y2="7.09129" stroke="#74D4F0" stroke-width="5.544"/>
<path id="Line 24" d="M34.493 42.2205L37.2529 41.9642L39.7249 67.9053L36.965 68.1617L34.2051 68.418L31.733 42.4768L34.493 42.2205Z" fill="#74D4F0"/>
<path id="Line 25" d="M37.9047 37.1508L35.9863 39.1495L46.5235 48.8809L48.4419 46.8822L50.3603 44.8835L39.8231 35.1521L37.9047 37.1508ZM48.4419 46.8822L46.5235 48.8809L57.0607 58.6123L58.9791 56.6136L60.8975 54.6149L50.3603 44.8835L48.4419 46.8822Z" fill="#74D4F0"/>
<path id="Line 26" d="M11.6571 58.3748L13.7513 60.1879L22.0275 50.9845L19.9333 49.1714L17.839 47.3583L9.56283 56.5617L11.6571 58.3748ZM19.9333 49.1714L22.0275 50.9845L30.3037 41.781L28.2095 39.968L26.1152 38.1549L17.839 47.3583L19.9333 49.1714Z" fill="#74D4F0"/>
<line id="Line 27" y1="-2.772" x2="25.6423" y2="-2.772" transform="matrix(0.997869 -0.0652546 0.0678077 0.997698 0.375926 38.8252)" stroke="#74D4F0" stroke-width="5.544"/>
<path id="Line 28" d="M8.05242 14.752L6.27686 16.8807L25.0412 31.9402L26.8167 29.8115L28.5923 27.6828L9.82798 12.6233L8.05242 14.752Z" fill="#74D4F0"/>
<path id="Line 29" d="M41.3163 32.9712L41.5043 35.7368L67.092 34.0636L66.904 31.2979L66.7161 28.5323L41.1284 30.2056L41.3163 32.9712Z" fill="#74D4F0"/>
</g>
</svg>
